<svg width="42" height="44" viewBox="0 0 42 44" fill="none" xmlns="http://www.w3.org/2000/svg">
<rect width="42" height="44" rx="21" fill="#2C5C8B"/>
<g clip-path="url(#clip0_7_1997)">
<path fill-rule="evenodd" clip-rule="evenodd" d="M28.3333 19.75H13.6667C13.3 19.75 13 20.0875 13 20.5V23.5C13 23.9125 13.3 24.25 13.6667 24.25H13.8L15 30.4C15.0667 30.7375 15.3333 31 15.6667 31H26.3333C26.6333 31 26.9 30.7375 27 30.4L28.2 24.25H28.3333C28.7 24.25 29 23.9125 29 23.5V20.5C29 20.0875 28.7 19.75 28.3333 19.75ZM14.3333 21.25H27.6667V23.05H14.3333V21.25ZM16.2 29.5H25.8L26.8333 24.25H15.1667L16.2 29.5Z" fill="white"/>
<path d="M16.9999 19C17.3666 19 17.6666 18.6625 17.6666 18.25C17.6666 16.1875 19.1666 14.5 20.9999 14.5C22.8333 14.5 24.3333 16.1875 24.3333 18.25C24.3333 18.6625 24.6333 19 24.9999 19C25.3666 19 25.6666 18.6625 25.6666 18.25C25.6666 15.3625 23.5666 13 20.9999 13C18.4333 13 16.3333 15.3625 16.3333 18.25C16.3333 18.6625 16.6333 19 16.9999 19Z" fill="white"/>
</g>
<defs>
<clipPath id="clip0_7_1997">
<rect width="16" height="18" fill="white" transform="translate(13 13)"/>
</clipPath>
</defs>
</svg>
