<svg width="42" height="44" viewBox="0 0 42 44" fill="none" xmlns="http://www.w3.org/2000/svg">
<rect width="42" height="44" rx="21" fill="#2C5C8B"/>
<g clip-path="url(#clip0_7_1990)">
<path fill-rule="evenodd" clip-rule="evenodd" d="M16.4855 17.3226C16.4855 19.7097 18.5104 21.6774 20.9668 21.6774C23.4232 21.6774 25.4481 19.7419 25.4481 17.3548C25.4481 14.9677 23.4232 13 20.9668 13C18.5104 13 16.4855 14.9355 16.4855 17.3226ZM17.9129 17.3226C17.9129 15.6774 19.2739 14.3548 20.9668 14.3548C22.6597 14.3548 24.0207 15.7097 24.0207 17.3226C24.0207 18.9677 22.6597 20.2903 20.9668 20.2903C19.2739 20.2903 17.9129 18.9677 17.9129 17.3226ZM13.6971 31C13.2988 31 13 30.6774 13 30.3226C13 26.0323 16.5851 22.5484 21 22.5484C25.3817 22.5484 28.9668 26 29 30.2581V30.3226C28.9668 30.7097 28.6349 31 28.2365 31H13.6971ZM20.9668 23.9355C24.3527 23.9355 27.1411 26.4516 27.5062 29.6452H14.4274C14.7925 26.4516 17.5809 23.9355 20.9668 23.9355Z" fill="white"/>
</g>
<defs>
<clipPath id="clip0_7_1990">
<rect width="16" height="18" fill="white" transform="translate(13 13)"/>
</clipPath>
</defs>
</svg>
