<svg width="120" height="120" viewBox="0 0 120 120" fill="none" xmlns="http://www.w3.org/2000/svg">
<rect x="2.5" y="2.5" width="115" height="115" rx="57.5" stroke="#2C5C8B" stroke-width="5"/>
<path d="M50.858 18.3477V32H47.1666V18.3477H50.858ZM55.2525 18.3477V21.1953H42.8892V18.3477H55.2525ZM65.4258 29.1641V32H57.5625V29.1641H65.4258ZM58.9219 18.3477V32H55.2422V18.3477H58.9219ZM64.4297 23.5273V26.3633H57.5625V23.5273H64.4297ZM65.4609 18.3477V21.1953H57.5625V18.3477H65.4609ZM68.5092 18.3477L70.6772 22.6719L72.8803 18.3477H77.0991L73.0092 25.1211L77.4741 32H73.1381L70.7241 27.5938L68.4272 32H64.2084L68.4272 25.1211L64.3256 18.3477H68.5092ZM43.0819 46.3477V49.1953H35.3241V46.3477H43.0819ZM36.6248 46.3477V60H32.9452V46.3477H36.6248ZM45.5077 46.3477V60H41.828V46.3477H45.5077ZM52.095 55.582H48.4505V52.7344H52.095C52.5637 52.7344 52.9505 52.668 53.2552 52.5352C53.5598 52.3945 53.7864 52.2031 53.9348 51.9609C54.0911 51.7188 54.1692 51.4492 54.1692 51.1523C54.1692 50.8008 54.0911 50.4766 53.9348 50.1797C53.7864 49.8828 53.5598 49.6445 53.2552 49.4648C52.9505 49.2852 52.5637 49.1953 52.095 49.1953H49.8802V60H46.2005V46.3477H52.095C53.2747 46.3477 54.2903 46.5547 55.1419 46.9688C56.0012 47.3828 56.6614 47.9492 57.1223 48.668C57.5833 49.3867 57.8137 50.207 57.8137 51.1289C57.8137 51.7852 57.6809 52.3867 57.4153 52.9336C57.1575 53.4805 56.7786 53.9531 56.2786 54.3516C55.7864 54.7422 55.1848 55.0469 54.4739 55.2656C53.7708 55.4766 52.9778 55.582 52.095 55.582ZM70.7644 52.9219V53.4375C70.7644 54.4766 70.6042 55.4141 70.2839 56.25C69.9714 57.0781 69.5261 57.7852 68.948 58.3711C68.3777 58.957 67.698 59.4062 66.9089 59.7188C66.1277 60.0312 65.2644 60.1875 64.3191 60.1875C63.3581 60.1875 62.4831 60.0312 61.6941 59.7188C60.905 59.4062 60.2214 58.957 59.6433 58.3711C59.0652 57.7852 58.6198 57.0781 58.3073 56.25C57.9948 55.4141 57.8386 54.4766 57.8386 53.4375V52.9219C57.8386 51.875 57.9948 50.9375 58.3073 50.1094C58.6198 49.2812 59.0612 48.5742 59.6316 47.9883C60.2019 47.3945 60.8816 46.9414 61.6706 46.6289C62.4597 46.3164 63.3347 46.1602 64.2956 46.1602C65.2409 46.1602 66.1042 46.3164 66.8855 46.6289C67.6745 46.9414 68.3581 47.3945 68.9362 47.9883C69.5144 48.5742 69.9636 49.2812 70.2839 50.1094C70.6042 50.9375 70.7644 51.875 70.7644 52.9219ZM67.073 53.4375V52.9102C67.073 52.2773 67.0105 51.7188 66.8855 51.2344C66.7605 50.75 66.5769 50.3398 66.3347 50.0039C66.0925 49.668 65.7995 49.4141 65.4558 49.2422C65.1198 49.0703 64.7331 48.9844 64.2956 48.9844C63.8425 48.9844 63.4402 49.0703 63.0886 49.2422C62.7448 49.4141 62.4558 49.668 62.2214 50.0039C61.9948 50.3398 61.823 50.75 61.7058 51.2344C61.5886 51.7188 61.53 52.2773 61.53 52.9102V53.4375C61.53 54.0547 61.5886 54.6055 61.7058 55.0898C61.823 55.5742 61.9987 55.9883 62.2331 56.332C62.4675 56.6758 62.7605 56.9375 63.112 57.1172C63.4636 57.2891 63.8659 57.375 64.3191 57.375C64.7487 57.375 65.1316 57.2891 65.4675 57.1172C65.8112 56.9375 66.1003 56.6758 66.3347 56.332C66.5769 55.9883 66.7605 55.5742 66.8855 55.0898C67.0105 54.6055 67.073 54.0547 67.073 53.4375ZM72.9338 46.3477H75.8986L79.0275 55.3711L82.1447 46.3477H85.1095L80.2228 60H77.8205L72.9338 46.3477ZM71.047 46.3477H74.1525L74.7384 57.4688V60H71.047V46.3477ZM83.9025 46.3477H87.0197V60H83.34V57.4688L83.9025 46.3477ZM32.7328 74.3477V77.1953H24.975V74.3477H32.7328ZM26.2758 74.3477V88H22.5961V74.3477H26.2758ZM35.1586 74.3477V88H31.4789V74.3477H35.1586ZM41.7459 83.582H38.1014V80.7344H41.7459C42.2147 80.7344 42.6014 80.668 42.9061 80.5352C43.2108 80.3945 43.4373 80.2031 43.5858 79.9609C43.742 79.7188 43.8202 79.4492 43.8202 79.1523C43.8202 78.8008 43.742 78.4766 43.5858 78.1797C43.4373 77.8828 43.2108 77.6445 42.9061 77.4648C42.6014 77.2852 42.2147 77.1953 41.7459 77.1953H39.5311V88H35.8514V74.3477H41.7459C42.9256 74.3477 43.9412 74.5547 44.7928 74.9688C45.6522 75.3828 46.3123 75.9492 46.7733 76.668C47.2342 77.3867 47.4647 78.207 47.4647 79.1289C47.4647 79.7852 47.3319 80.3867 47.0662 80.9336C46.8084 81.4805 46.4295 81.9531 45.9295 82.3516C45.4373 82.7422 44.8358 83.0469 44.1248 83.2656C43.4217 83.4766 42.6287 83.582 41.7459 83.582ZM48.8137 86.875L56.6067 74.3477L59.3255 75.4727L51.5677 88L48.8137 86.875ZM56.6067 74.3477H60.2747V88H56.6067V74.3477ZM47.888 74.3477H51.5677V88H47.888V74.3477ZM66.9675 79.0117C68.1628 79.0117 69.2019 79.1797 70.0847 79.5156C70.9675 79.8516 71.6511 80.3516 72.1355 81.0156C72.6277 81.6797 72.8737 82.4961 72.8737 83.4648C72.8737 84.1836 72.7331 84.8242 72.4519 85.3867C72.1706 85.9492 71.7722 86.4258 71.2566 86.8164C70.7409 87.207 70.1198 87.5039 69.3933 87.707C68.6667 87.9023 67.8581 88 66.9675 88H60.9558V74.3477H64.6355V85.1523H66.9675C67.6862 85.1523 68.237 85.0117 68.6198 84.7305C69.0105 84.4414 69.2058 84.0117 69.2058 83.4414C69.2058 83.082 69.1198 82.7852 68.948 82.5508C68.7761 82.3164 68.5222 82.1406 68.1862 82.0234C67.8581 81.9062 67.4519 81.8477 66.9675 81.8477H63.2058V79.0117H66.9675ZM71.4441 77.1836H63.5105V74.3477H71.4441V77.1836ZM85.7541 80.9219V81.4375C85.7541 82.4766 85.5939 83.4141 85.2736 84.25C84.9611 85.0781 84.5158 85.7852 83.9377 86.3711C83.3673 86.957 82.6877 87.4062 81.8986 87.7188C81.1173 88.0312 80.2541 88.1875 79.3087 88.1875C78.3478 88.1875 77.4728 88.0312 76.6837 87.7188C75.8947 87.4062 75.2111 86.957 74.633 86.3711C74.0548 85.7852 73.6095 85.0781 73.297 84.25C72.9845 83.4141 72.8283 82.4766 72.8283 81.4375V80.9219C72.8283 79.875 72.9845 78.9375 73.297 78.1094C73.6095 77.2812 74.0509 76.5742 74.6212 75.9883C75.1916 75.3945 75.8712 74.9414 76.6603 74.6289C77.4494 74.3164 78.3244 74.1602 79.2853 74.1602C80.2306 74.1602 81.0939 74.3164 81.8752 74.6289C82.6642 74.9414 83.3478 75.3945 83.9259 75.9883C84.5041 76.5742 84.9533 77.2812 85.2736 78.1094C85.5939 78.9375 85.7541 79.875 85.7541 80.9219ZM82.0627 81.4375V80.9102C82.0627 80.2773 82.0002 79.7188 81.8752 79.2344C81.7502 78.75 81.5666 78.3398 81.3244 78.0039C81.0822 77.668 80.7892 77.4141 80.4455 77.2422C80.1095 77.0703 79.7228 76.9844 79.2853 76.9844C78.8322 76.9844 78.4298 77.0703 78.0783 77.2422C77.7345 77.4141 77.4455 77.668 77.2111 78.0039C76.9845 78.3398 76.8127 78.75 76.6955 79.2344C76.5783 79.7188 76.5197 80.2773 76.5197 80.9102V81.4375C76.5197 82.0547 76.5783 82.6055 76.6955 83.0898C76.8127 83.5742 76.9884 83.9883 77.2228 84.332C77.4572 84.6758 77.7502 84.9375 78.1017 85.1172C78.4533 85.2891 78.8556 85.375 79.3087 85.375C79.7384 85.375 80.1212 85.2891 80.4572 85.1172C80.8009 84.9375 81.09 84.6758 81.3244 84.332C81.5666 83.9883 81.7502 83.5742 81.8752 83.0898C82.0002 82.6055 82.0627 82.0547 82.0627 81.4375ZM91.9312 83.582H88.2867V80.7344H91.9312C92.4 80.7344 92.7867 80.668 93.0914 80.5352C93.3961 80.3945 93.6227 80.2031 93.7711 79.9609C93.9273 79.7188 94.0055 79.4492 94.0055 79.1523C94.0055 78.8008 93.9273 78.4766 93.7711 78.1797C93.6227 77.8828 93.3961 77.6445 93.0914 77.4648C92.7867 77.2852 92.4 77.1953 91.9312 77.1953H89.7164V88H86.0367V74.3477H91.9312C93.1109 74.3477 94.1266 74.5547 94.9781 74.9688C95.8375 75.3828 96.4977 75.9492 96.9586 76.668C97.4195 77.3867 97.65 78.207 97.65 79.1289C97.65 79.7852 97.5172 80.3867 97.2516 80.9336C96.9937 81.4805 96.6148 81.9531 96.1148 82.3516C95.6227 82.7422 95.0211 83.0469 94.3102 83.2656C93.607 83.4766 92.8141 83.582 91.9312 83.582Z" fill="white"/>
</svg>
